<?xml version="1.0" encoding="iso-8859-1"?>
<!-- Generator: Adobe Illustrator 19.0.0, SVG Export Plug-In . SVG Version: 6.00 Build 0)  -->
<svg version="1.1" id="logo"
	xmlns="http://www.w3.org/2000/svg"
	xmlns:xlink="http://www.w3.org/1999/xlink" x="0px" y="0px" viewBox="0 0 512 512" style="enable-background:new 0 0 512 512;" xml:space="preserve">
	<path d="M501.801,245.801H373.477V33.113c0-5.632-4.567-10.199-10.199-10.199H140.39c-5.633,0-10.199,4.567-10.199,10.199v212.688
	H10.199C4.566,245.801,0,250.368,0,256v222.887c0,5.632,4.566,10.199,10.199,10.199h222.887c5.633,0,10.199-4.567,10.199-10.199
	V266.199h25.429v212.688c0,5.632,4.567,10.199,10.199,10.199h222.887c5.632,0,10.199-4.567,10.199-10.199V256
	C512,250.368,507.433,245.801,501.801,245.801z M222.887,468.688H20.398V266.199h202.489V468.688z M150.589,245.801V43.312
	h202.489v202.489H150.589z M491.602,468.688H289.113V266.199h202.489V468.688z" fill="#2b394a" class="color000 svgShape"></path>
	<path d="M296.075 188.96l-29.428-95.902c-1.372-4.573-7.013-6.709-12.807-6.709-5.641 0-11.283 2.136-12.655 6.709l-29.427 95.902c-.152.61-.305 1.22-.305 1.525 0 4.878 7.166 8.233 12.502 8.233 3.355 0 5.946-1.068 6.709-3.964l5.794-20.278h34.916l5.794 20.278c.762 2.897 3.354 3.964 6.708 3.964 5.336 0 12.503-3.507 12.503-8.233C296.38 190.027 296.228 189.57 296.075 188.96zM240.576 158.924l13.265-46.808 13.265 46.808H240.576zM144.792 363.31c8.081-3.506 12.96-11.74 12.96-24.242 0-21.651-14.789-26.835-30.647-26.835H97.679v.001c-4.421 0-8.691 2.135-8.691 6.251v99.105c0 3.203 3.355 6.098 8.691 6.098h32.323c17.23 0 30.494-8.538 30.494-32.323v-3.202C160.496 372.915 154.092 366.969 144.792 363.31zM108.657 329.614h16.924c7.776.001 12.35 4.879 12.35 12.807 0 7.776-3.964 13.112-12.197 13.112h-17.077V329.614zM140.676 389.687c0 11.587-5.488 16.619-14.789 16.619h-17.229v-35.22h17.229c9.301 0 14.789 4.269 14.789 16.162V389.687zM413.79 384.655c-5.184 0-9.454 1.525-9.758 6.251-.458 6.403-1.678 16.315-15.552 16.315-10.52 0-16.315-5.641-16.315-17.533v-42.539c0-11.892 5.794-17.533 16.009-17.533 14.485 0 15.552 10.367 15.858 15.095.152 4.573 4.269 6.251 9.911 6.251 6.708 0 9.911-1.83 9.911-9.758 0-17.686-15.095-28.969-36.288-28.969-19.213-.001-35.222 9.452-35.222 34.914v42.539c0 25.462 15.857 34.914 35.068 34.914 21.346 0 36.441-11.74 36.441-30.189C423.852 386.637 420.65 384.655 413.79 384.655zM43.528 381.199c-5.633 0-10.199 4.567-10.199 10.199V446.6c0 5.632 4.566 10.199 10.199 10.199 5.633 0 10.199-4.567 10.199-10.199v-55.201C53.727 385.765 49.161 381.199 43.528 381.199zM43.528 341.621c-5.633 0-10.199 4.567-10.199 10.199v5.858c0 5.632 4.566 10.199 10.199 10.199 5.633 0 10.199-4.567 10.199-10.199v-5.858C53.727 346.188 49.161 341.621 43.528 341.621z" fill="#2b394a" class="color000 svgShape"></path>
</svg>